<?xml version="1.0" encoding="utf-8"?>
<!-- Generator: Adobe Illustrator 21.1.0, SVG Export Plug-In . SVG Version: 6.00 Build 0)  -->
<svg version="1.1" id="Layer_1" xmlns="http://www.w3.org/2000/svg" xmlns:xlink="http://www.w3.org/1999/xlink" x="0px" y="0px"
	 viewBox="0 0 600 372" style="enable-background:new 0 0 600 372;" xml:space="preserve">
<desc>Created by HiQPdf</desc>
<g>
	<g transform="matrix(1,0,0,1,0,0)">
	</g>
	<g transform="matrix(1,0,0,1,0,0)">
	</g>
	<g transform="matrix(1,0,0,1,0,0)">
	</g>
	<g transform="matrix(1,0,0,1,0,0)">
		<path vector-effect="none" style="fill:#51565F;" d="M0,0h600v40H0V0"/>
	</g>
	<g transform="matrix(1,0,0,1,0,0)">
		<path vector-effect="none" style="fill:#51565F;" d="M0,40h300v152H0V40"/>
	</g>
	<g transform="matrix(1,0,0,1,0,0)">
		<path vector-effect="none" style="fill:#51565F;" d="M300,40h300v152H300V40"/>
	</g>
	<g transform="matrix(1,0,0,1,0,0)">
		<path vector-effect="none" style="fill:#33343A;" d="M0,192h100v80H0V192"/>
	</g>
	<g transform="matrix(1,0,0,1,0,0)">
		<path vector-effect="none" style="fill:#33343A;" d="M100,192h100v80H100V192"/>
	</g>
	<g transform="matrix(1,0,0,1,0,0)">
		<path vector-effect="none" style="fill:#33343A;" d="M200,192h100v80H200V192"/>
	</g>
	<g transform="matrix(1,0,0,1,0,0)">
		<path vector-effect="none" style="fill:#33343A;" d="M300,192h100v80H300V192"/>
	</g>
	<g transform="matrix(1,0,0,1,0,0)">
		<path vector-effect="none" style="fill:#33343A;" d="M400,192h100v80H400V192"/>
	</g>
	<g transform="matrix(1,0,0,1,0,0)">
		<path vector-effect="none" style="fill:#33343A;" d="M500,192h100v80H500V192"/>
	</g>
	<g transform="matrix(1,0,0,1,0,0)">
		<path vector-effect="none" style="fill:#33343A;" d="M0,272h100v50H0V272"/>
	</g>
	<g transform="matrix(1,0,0,1,0,0)">
		<path vector-effect="none" style="fill:#33343A;" d="M100,272h100v50H100V272"/>
	</g>
	<g transform="matrix(1,0,0,1,0,0)">
		<path vector-effect="none" style="fill:#33343A;" d="M200,272h100v50H200V272"/>
	</g>
	<g transform="matrix(1,0,0,1,0,0)">
		<path vector-effect="none" style="fill:#33343A;" d="M300,272h100v50H300V272"/>
	</g>
	<g transform="matrix(1,0,0,1,0,0)">
		<path vector-effect="none" style="fill:#33343A;" d="M400,272h100v50H400V272"/>
	</g>
	<g transform="matrix(1,0,0,1,0,0)">
		<path vector-effect="none" style="fill:#33343A;" d="M500,272h100v50H500V272"/>
	</g>
	<g transform="matrix(1,0,0,1,0,0)">
		<path vector-effect="none" style="fill:#33343A;" d="M0,322h100v50H0V322"/>
	</g>
	<g transform="matrix(1,0,0,1,0,0)">
		<path vector-effect="none" style="fill:#33343A;" d="M100,322h100v50H100V322"/>
	</g>
	<g transform="matrix(1,0,0,1,0,0)">
		<path vector-effect="none" style="fill:#33343A;" d="M200,322h100v50H200V322"/>
	</g>
	<g transform="matrix(1,0,0,1,0,0)">
		<path vector-effect="none" style="fill:#33343A;" d="M300,322h100v50H300V322"/>
	</g>
	<g transform="matrix(1,0,0,1,0,0)">
		<path vector-effect="none" style="fill:#33343A;" d="M400,322h100v50H400V322"/>
	</g>
	<g transform="matrix(1,0,0,1,0,0)">
		<path vector-effect="none" style="fill:#33343A;" d="M500,322h100v50H500V322"/>
	</g>
	<g transform="matrix(1,0,0,1,0,0)">
		<text transform="matrix(1 0 0 1 266 28)" style="fill:#2E2E2E; font-family:'ArialMT'; font-size:16px;"> </text>
	</g>
	<g transform="matrix(1,0,0,1,0,0)">
		<path vector-effect="none" style="fill-opacity:0;stroke:#C0C0C0;stroke-linecap:square;stroke-miterlimit:2;" d="M25,218h50v50
			H25V218"/>
	</g>
	<g transform="matrix(1,0,0,1,0,0)">
		<path vector-effect="none" style="fill-opacity:0;stroke:#C0C0C0;stroke-linecap:square;stroke-miterlimit:2;" d="M125,218h50v50
			h-50V218"/>
	</g>
	<g transform="matrix(1,0,0,1,0,0)">
		<path vector-effect="none" style="fill-opacity:0;stroke:#C0C0C0;stroke-linecap:square;stroke-miterlimit:2;" d="M225,218h50v50
			h-50V218"/>
	</g>
	<g transform="matrix(1,0,0,1,0,0)">
		<path vector-effect="none" style="fill-opacity:0;stroke:#C0C0C0;stroke-linecap:square;stroke-miterlimit:2;" d="M325,218h50v50
			h-50V218"/>
	</g>
	<g transform="matrix(1,0,0,1,0,0)">
		<path vector-effect="none" style="fill-opacity:0;stroke:#C0C0C0;stroke-linecap:square;stroke-miterlimit:2;" d="M425,218h50v50
			h-50V218"/>
	</g>
	<g transform="matrix(1,0,0,1,0,0)">
		<path vector-effect="none" style="fill-opacity:0;stroke:#C0C0C0;stroke-linecap:square;stroke-miterlimit:2;" d="M525,218h50v50
			h-50V218"/>
	</g>
	<g transform="matrix(1,0,0,1,0,0)">
		<text transform="matrix(1 0 0 1 22 44)" style="fill:#2E2E2E; font-family:'ArialMT'; font-size:32px;">Fort Worth, Texas</text>
	</g>
	<g transform="matrix(1,0,0,1,0,0)">
		<path vector-effect="none" style="fill-opacity:0;stroke:#C0C0C0;stroke-linecap:square;stroke-miterlimit:2;" d="M170.8,79h90v90
			h-90V79"/>
	</g>
	<g transform="matrix(1,0,0,1,0,0)">
	</g>
	<g transform="matrix(1,0,0,1,0,0)">
	</g>
	<g transform="matrix(1,0,0,1,0,0)">
	</g>
	<g transform="matrix(1,0,0,1,0,0)">
		<text transform="matrix(1 0 0 1 466 177)" style="fill:#2E2E2E; font-family:'ArialMT'; font-size:22px;">May 8, 2017</text>
	</g>
	<g transform="matrix(1,0,0,1,0,0)">
		<text transform="matrix(1 0 0 1 508.8076 140)" style="fill:#2E2E2E; font-family:'ArialMT'; font-size:22px;">Monday</text>
	</g>
	<path style="fill-rule:evenodd;clip-rule:evenodd;fill:#FFFFFF;" d="M44,259c-8.8,0-16-7.2-16-16c0-8.8,7.2-16,16-16
		c6,0,11.2,3.3,14,8.2c0.7-0.1,1.3-0.2,2-0.2c6.6,0,12,5.4,12,12c0,6.6-5.4,12-12,12C57.2,259,47.2,259,44,259z M60,255
		c4.4,0,8-3.6,8-8c0-4.4-3.6-8-8-8c-1.6,0-3.1,0.5-4.3,1.3c-1.2-5.3-6-9.3-11.7-9.3c-6.6,0-12,5.4-12,12c0,6.6,5.4,12,12,12
		C47.6,255,57,255,60,255z"/>
	<path style="fill-rule:evenodd;clip-rule:evenodd;fill:#FFFFFF;" d="M144,259c-8.8,0-16-7.2-16-16c0-8.8,7.2-16,16-16
		c6,0,11.2,3.3,14,8.2c0.7-0.1,1.3-0.2,2-0.2c6.6,0,12,5.4,12,12c0,6.6-5.4,12-12,12C157.2,259,147.2,259,144,259z M160,255
		c4.4,0,8-3.6,8-8c0-4.4-3.6-8-8-8c-1.6,0-3.1,0.5-4.3,1.3c-1.2-5.3-6-9.3-11.7-9.3c-6.6,0-12,5.4-12,12c0,6.6,5.4,12,12,12
		C147.6,255,157,255,160,255z"/>
	<path style="fill-rule:evenodd;clip-rule:evenodd;fill:#FFFFFF;" d="M244,259c-8.8,0-16-7.2-16-16c0-8.8,7.2-16,16-16
		c6,0,11.2,3.3,14,8.2c0.7-0.1,1.3-0.2,2-0.2c6.6,0,12,5.4,12,12c0,6.6-5.4,12-12,12C257.2,259,247.2,259,244,259z M260,255
		c4.4,0,8-3.6,8-8c0-4.4-3.6-8-8-8c-1.6,0-3.1,0.5-4.3,1.3c-1.2-5.3-6-9.3-11.7-9.3c-6.6,0-12,5.4-12,12c0,6.6,5.4,12,12,12
		C247.6,255,257,255,260,255z"/>
	<path style="fill-rule:evenodd;clip-rule:evenodd;fill:#FFFFFF;" d="M344,259c-8.8,0-16-7.2-16-16c0-8.8,7.2-16,16-16
		c6,0,11.2,3.3,14,8.2c0.7-0.1,1.3-0.2,2-0.2c6.6,0,12,5.4,12,12c0,6.6-5.4,12-12,12C357.2,259,347.2,259,344,259z M360,255
		c4.4,0,8-3.6,8-8c0-4.4-3.6-8-8-8c-1.6,0-3.1,0.5-4.3,1.3c-1.2-5.3-6-9.3-11.7-9.3c-6.6,0-12,5.4-12,12c0,6.6,5.4,12,12,12
		C347.6,255,357,255,360,255z"/>
	<path style="fill-rule:evenodd;clip-rule:evenodd;fill:#FFFFFF;" d="M444,259c-8.8,0-16-7.2-16-16c0-8.8,7.2-16,16-16
		c6,0,11.2,3.3,14,8.2c0.7-0.1,1.3-0.2,2-0.2c6.6,0,12,5.4,12,12c0,6.6-5.4,12-12,12C457.2,259,447.2,259,444,259z M460,255
		c4.4,0,8-3.6,8-8c0-4.4-3.6-8-8-8c-1.6,0-3.1,0.5-4.3,1.3c-1.2-5.3-6-9.3-11.7-9.3c-6.6,0-12,5.4-12,12c0,6.6,5.4,12,12,12
		C447.6,255,457,255,460,255z"/>
	<path style="fill-rule:evenodd;clip-rule:evenodd;fill:#FFFFFF;" d="M544,259c-8.8,0-16-7.2-16-16c0-8.8,7.2-16,16-16
		c6,0,11.2,3.3,14,8.2c0.7-0.1,1.3-0.2,2-0.2c6.6,0,12,5.4,12,12c0,6.6-5.4,12-12,12C557.2,259,547.2,259,544,259z M560,255
		c4.4,0,8-3.6,8-8c0-4.4-3.6-8-8-8c-1.6,0-3.1,0.5-4.3,1.3c-1.2-5.3-6-9.3-11.7-9.3c-6.6,0-12,5.4-12,12c0,6.6,5.4,12,12,12
		C547.6,255,557,255,560,255z"/>
	<path style="fill-rule:evenodd;clip-rule:evenodd;fill:#FFFFFF;" d="M257.2,124.1h-6.3c-1.7,0-3.1-1.4-3.1-3.1
		c0-1.7,1.4-3.1,3.1-3.1h6.3c1.7,0,3.1,1.4,3.1,3.1C260.3,122.7,258.9,124.1,257.2,124.1z M244.8,103.2c-1.2,1.2-3.2,1.2-4.5,0
		c-1.2-1.2-1.2-3.2,0-4.5l4.5-4.5c1.2-1.2,3.2-1.2,4.5,0c1.2,1.2,1.2,3.2,0,4.5L244.8,103.2z M240.2,127.8L240.2,127.8
		c2.8,3.3,4.4,7.5,4.4,12.1c0,10.4-8.5,18.9-18.9,18.9c-4.4,0-20.2,0-25.2,0c-13.9,0-25.2-11.3-25.2-25.2
		c0-13.9,11.3-25.2,25.2-25.2c2.5,0,4.9,0.4,7.1,1c3.5-4.5,8.8-7.3,14.9-7.3c10.4,0,18.9,8.5,18.9,18.9
		C241.4,123.4,241,125.7,240.2,127.8z M181.6,133.6c0,10.4,8.5,18.9,18.9,18.9c5.7,0,20.4,0,25.2,0c7,0,12.6-5.6,12.6-12.6
		c0-7-5.6-12.6-12.6-12.6c-2.5,0-4.9,0.8-6.8,2c-1.9-8.4-9.4-14.6-18.4-14.6C190.1,114.7,181.6,123.2,181.6,133.6z M222.6,108.4
		c-3.5,0-6.6,1.4-8.9,3.7c3.7,2.3,6.7,5.4,8.9,9.2c1-0.2,2.1-0.3,3.2-0.3c3.3,0,6.5,0.9,9.2,2.4l0,0c0.2-0.8,0.2-1.6,0.2-2.4
		C235.1,114,229.5,108.4,222.6,108.4z M222.6,95.8c-1.7,0-3.1-1.4-3.1-3.1v-6.3c0-1.7,1.4-3.1,3.1-3.1c1.7,0,3.1,1.4,3.1,3.1v6.3
		C225.7,94.4,224.3,95.8,222.6,95.8z M200.3,103.2l-4.5-4.5c-1.2-1.2-1.2-3.2,0-4.5c1.2-1.2,3.2-1.2,4.5,0l4.5,4.5
		c1.2,1.2,1.2,3.2,0,4.5C203.5,104.4,201.5,104.4,200.3,103.2z"/>
</g>
<text transform="matrix(1 0 0 1 24.5 340)" style="fill:#51565F; font-family:'Roboto-Bold'; font-size:21px;">MON</text>
<text transform="matrix(1 0 0 1 125 340)" style="fill:#51565F; font-family:'Roboto-Bold'; font-size:21px;">TUE</text>
<text transform="matrix(1 0 0 1 224.75 340)" style="fill:#51565F; font-family:'Roboto-Bold'; font-size:21px;">WED</text>
<text transform="matrix(1 0 0 1 325.25 340)" style="fill:#51565F; font-family:'Roboto-Bold'; font-size:21px;">THU</text>
<text transform="matrix(1 0 0 1 424.75 340)" style="fill:#51565F; font-family:'Roboto-Bold'; font-size:21px;">FRI</text>
<text transform="matrix(1 0 0 1 525.25 340)" style="fill:#51565F; font-family:'Roboto-Bold'; font-size:21px;">SAT</text>
<text transform="matrix(1 0 0 1 24 152.5)" style="opacity:0.85;fill:#FFFFFF; font-family:'Roboto-Bold'; font-size:81px;">85°</text>
<text transform="matrix(1 0 0 1 25 308.5)" style="opacity:0.85;fill:#FFFFFF; font-family:'Roboto-Bold'; font-size:32px;">85°</text>
<text transform="matrix(1 0 0 1 125 308.5)" style="opacity:0.85;fill:#FFFFFF; font-family:'Roboto-Bold'; font-size:32px;">85°</text>
<text transform="matrix(1 0 0 1 228.0025 308.5)" style="opacity:0.85;fill:#FFFFFF; font-family:'Roboto-Bold'; font-size:32px;">85°</text>
<text transform="matrix(1 0 0 1 328.002 308.5)" style="opacity:0.85;fill:#FFFFFF; font-family:'Roboto-Bold'; font-size:32px;">85°</text>
<text transform="matrix(1 0 0 1 428.0025 308.5)" style="opacity:0.85;fill:#FFFFFF; font-family:'Roboto-Bold'; font-size:32px;">85°</text>
<text transform="matrix(1 0 0 1 528.002 308.5)" style="opacity:0.85;fill:#FFFFFF; font-family:'Roboto-Bold'; font-size:32px;">85°</text>
</svg>
