<svg xmlns="http://www.w3.org/2000/svg" viewBox="0 0 44 40"><defs><style>.\35 0434b80-9643-4302-ba3e-cd5adae44fab{fill:#fff;fill-rule:evenodd;}</style></defs><title>fog</title><g id="3a069cf8-ddbb-4043-b40d-d42774e08cc7" data-name="Layer 2"><g id="26f0ae13-4bd7-472a-9fbc-bcabef20ea47" data-name="Climacons"><path class="50434b80-9643-4302-ba3e-cd5adae44fab" d="M42,32H2a2,2,0,1,1,0-4H42a2,2,0,1,1,0,4Zm0-8H2a2,2,0,0,1,0-4H42a2,2,0,0,1,0,4ZM32,12a7.93,7.93,0,0,0-4.33,1.29A12,12,0,0,0,4,16H0A16,16,0,0,1,30,8.2,11.76,11.76,0,0,1,43.3,16H38.92A8,8,0,0,0,32,12ZM2,36H42a2,2,0,0,1,0,4H2a2,2,0,0,1,0-4Z"/></g></g></svg>