<svg xmlns="http://www.w3.org/2000/svg" viewBox="0 0 46.99 45.99"><defs><style>.\31 08c7d06-1ab2-466a-a3f5-1a75486b84fa{fill:#fff;fill-rule:evenodd;}</style></defs><title>hail</title><g id="a4cc04d3-ee0c-4b27-9d1c-718b959b8ff0" data-name="Layer 2"><g id="ad687b4b-5acb-4dfd-a3a8-6f4689e3d15c" data-name="Climacons"><path class="108c7d06-1ab2-466a-a3f5-1a75486b84fa" d="M45,38a2,2,0,1,1,2-2A2,2,0,0,1,45,38Zm-9-6.7V26.92a8,8,0,1,0-8.33-13.63A12,12,0,1,0,8,24.92v4.92A16,16,0,1,1,30,8.2,12,12,0,0,1,36,31.3ZM3,39a2,2,0,1,1-2,2A2,2,0,0,1,3,39ZM13,22c0-1.1-.1-2,1-2s1,.9,1,2V46H13a4,4,0,0,0-4-4V40a6,6,0,0,1,4,1.56Zm9,14c-1.1,0-1-.89-1-2V26c0-1.1-.1-2,1-2s1,.9,1,2v8C23,35.1,23.1,36,22,36Zm0,4a2,2,0,1,1-2,2A2,2,0,0,1,22,40Zm8-20c1.1,0,1,.9,1,2V40a10,10,0,0,1,8-4v2a8,8,0,0,0-8,8H29c0-.27,0-.54,0-.81A8.22,8.22,0,0,1,29,44V22C29,20.89,28.89,20,30,20Z"/></g></g></svg>