<svg xmlns="http://www.w3.org/2000/svg" viewBox="0 0 44.99 39"><defs><style>.\35 889766f-536c-483e-87b8-43789257e9d1{fill:#fff;fill-rule:evenodd;}</style></defs><title>partly-cloudy-night</title><g id="bb682808-6d72-4322-a9e5-e1ececf6aab9" data-name="Layer 2"><g id="475220ff-8f01-417e-a376-342fb21a5d34" data-name="Climacons"><path class="5889766f-536c-483e-87b8-43789257e9d1" d="M41.82,20.11h0A12,12,0,0,1,32,39H16A16,16,0,1,1,21.68,8h0A11.94,11.94,0,0,1,35.2.21,8,8,0,0,0,35,2a8,8,0,0,0,9.79,7.79A12.1,12.1,0,0,1,45,12,11.94,11.94,0,0,1,41.82,20.11ZM4,23A12,12,0,0,0,16,35H32a8,8,0,1,0-4.33-14.71A12,12,0,0,0,4,23ZM23.55,8.9h0Zm7.66-4.7A8,8,0,0,0,25.28,10h0A16.07,16.07,0,0,1,30,15.2a11.52,11.52,0,0,1,9,2.07h0a8,8,0,0,0,1.79-3.48A12,12,0,0,1,31.21,4.21Z"/></g></g></svg>