<svg xmlns="http://www.w3.org/2000/svg" viewBox="0 0 53.99 47.99"><defs><style>.\39 ab16059-9450-43da-9c11-af11d0816736{fill:#fff;fill-rule:evenodd;}</style></defs><title>partly-cloudy-day</title><g id="903f1c79-5195-4a58-943c-3bacea99de41" data-name="Layer 2"><g id="7012436b-6aec-4577-bd48-6ab981f3f678" data-name="Climacons"><path class="9ab16059-9450-43da-9c11-af11d0816736" d="M52,26H48a2,2,0,1,1,0-4h4a2,2,0,1,1,0,4ZM44.14,12.68a2,2,0,1,1-2.83-2.83L44.14,7A2,2,0,1,1,47,9.86ZM41.19,28.29h0A12,12,0,0,1,32,48H16a16,16,0,1,1,4.52-31.34A12,12,0,0,1,41.19,28.29ZM4,32A12,12,0,0,0,16,44H32a8,8,0,1,0-4.33-14.71A12,12,0,0,0,4,32ZM30,16a8,8,0,0,0-5.66,2.35A16.1,16.1,0,0,1,30,24.2a11.47,11.47,0,0,1,7.88,1.32h0A8,8,0,0,0,30,16Zm0-8a2,2,0,0,1-2-2V2a2,2,0,1,1,4,0V6A2,2,0,0,1,30,8ZM15.86,12.68,13,9.86A2,2,0,0,1,15.86,7l2.83,2.83a2,2,0,1,1-2.83,2.83Z"/></g></g></svg>