<svg xmlns="http://www.w3.org/2000/svg" viewBox="0 0 43.99 43.99"><defs><style>.\31 ce7fdc4-64f7-4381-8dfd-aeed20cce039{fill:#fff;fill-rule:evenodd;}</style></defs><title>rain</title><g id="3ba30f62-217b-4246-b62f-cd31c9ea5215" data-name="Layer 2"><g id="a2582a71-d9f1-422c-846e-33e3e4397efa" data-name="Climacons"><path class="1ce7fdc4-64f7-4381-8dfd-aeed20cce039" d="M36,31.3V26.92a8,8,0,1,0-8.33-13.63A12,12,0,1,0,8,24.92v4.92A16,16,0,1,1,30,8.2a12,12,0,0,1,6,23.1ZM14,20a2,2,0,0,1,2,2v4a2,2,0,1,1-4,0V22A2,2,0,0,1,14,20Zm0,12a2,2,0,0,1,2,2v4a2,2,0,1,1-4,0V34A2,2,0,0,1,14,32Zm8-8a2,2,0,0,1,2,2v4a2,2,0,1,1-4,0V26A2,2,0,0,1,22,24Zm0,12a2,2,0,0,1,2,2v4a2,2,0,1,1-4,0V38A2,2,0,0,1,22,36Zm8-16a2,2,0,0,1,2,2v4a2,2,0,1,1-4,0V22A2,2,0,0,1,30,20Zm0,12a2,2,0,0,1,2,2v4a2,2,0,1,1-4,0V34A2,2,0,0,1,30,32Z"/></g></g></svg>