<svg xmlns="http://www.w3.org/2000/svg" viewBox="0 0 43.99 43.99"><defs><style>.a5a00593-eea4-4875-adc9-65daf33dc829{fill:#fff;fill-rule:evenodd;}</style></defs><title>sleet</title><g id="44ac2917-0063-4fa0-892f-26e1361908b0" data-name="Layer 2"><g id="6e7f7ff2-c6f6-4e8e-886b-fd84a728952b" data-name="Climacons"><path class="a5a00593-eea4-4875-adc9-65daf33dc829" d="M36,31.3V26.92a8,8,0,1,0-8.33-13.63A12,12,0,1,0,8,24.92v4.92A16,16,0,1,1,30,8.2,12,12,0,0,1,36,31.3ZM14,32c-1.1,0-1-.9-1-2V22c0-1.1-.1-2,1-2s1,.9,1,2v8C15,31.1,15.1,32,14,32Zm0,4a2,2,0,1,1-2,2A2,2,0,0,1,14,36Zm8,0c-1.1,0-1-.89-1-2V26c0-1.1-.1-2,1-2s1,.9,1,2v8C23,35.1,23.1,36,22,36Zm0,4a2,2,0,1,1-2,2A2,2,0,0,1,22,40Zm8-8c-1.1,0-1-.9-1-2V22c0-1.1-.1-2,1-2s1,.9,1,2v8C31,31.1,31.1,32,30,32Zm0,4a2,2,0,1,1-2,2A2,2,0,0,1,30,36Z"/></g></g></svg>