<svg xmlns="http://www.w3.org/2000/svg" viewBox="0 0 44 40"><defs><style>.\35 e73489a-27bf-4811-bf4b-aa3777a376fc{fill:#fff;fill-rule:evenodd;}</style></defs><title>snow</title><g id="6f571f84-904f-4b19-a7bc-83c1bb25724b" data-name="Layer 2"><g id="0579d485-220e-47e2-9c03-2790b57378d2" data-name="Climacons"><path class="5e73489a-27bf-4811-bf4b-aa3777a376fc" d="M36,31.3V26.92a8,8,0,1,0-8.33-13.63A12,12,0,1,0,8,24.92v4.92A16,16,0,1,1,30,8.2,12,12,0,0,1,36,31.3ZM14,24a2,2,0,1,1-2,2A2,2,0,0,1,14,24Zm0,8a2,2,0,1,1-2,2A2,2,0,0,1,14,32Zm8-4a2,2,0,1,1-2,2A2,2,0,0,1,22,28Zm0,8a2,2,0,1,1-2,2A2,2,0,0,1,22,36Zm8-12a2,2,0,1,1-2,2A2,2,0,0,1,30,24Zm0,8a2,2,0,1,1-2,2A2,2,0,0,1,30,32Z"/></g></g></svg>