<svg xmlns="http://www.w3.org/2000/svg" viewBox="0 0 42 36"><defs><style>.\39 e2d0c22-38de-46fd-8794-7e2f7dcc6065{fill:#fff;fill-rule:evenodd;}</style></defs><title>tornado</title><g id="c1be4c11-e662-42d5-9e84-5131233beeb9" data-name="Layer 2"><g id="e57aec89-bf83-4559-b7e4-7ab18a3ce246" data-name="Climacons"><path class="9e2d0c22-38de-46fd-8794-7e2f7dcc6065" d="M40,4H2A2,2,0,1,1,2,0H40a2,2,0,1,1,0,4ZM4,8H34a2,2,0,1,1,0,4H4A2,2,0,1,1,4,8Zm12,8H38a2,2,0,0,1,0,4H16a2,2,0,0,1,0-4Zm2,16h6a2,2,0,1,1,0,4H18a2,2,0,1,1,0-4Zm1-6a2,2,0,0,1,2-2H35a2,2,0,1,1,0,4H21A2,2,0,0,1,19,26Z"/></g></g></svg>