<svg xmlns="http://www.w3.org/2000/svg" viewBox="0 0 43.99 28"><defs><style>.\34 9e0c48b-39ff-4e47-b84c-4ac3786b8dc8{fill:#fff;fill-rule:evenodd;}</style></defs><title>wind</title><g id="6e59253f-5846-4df7-8891-05758c0653f1" data-name="Layer 2"><g id="1e8bb0db-bd92-4cc0-8f6f-ab04a1e6d1de" data-name="Climacons"><path class="49e0c48b-39ff-4e47-b84c-4ac3786b8dc8" d="M38,16H35a2,2,0,1,1,0-4h3a2,2,0,1,0,0-4,2,2,0,0,1,0-4,2,2,0,0,1,.4,0A6,6,0,0,1,38,16ZM28,12H6a2,2,0,0,0,0,4H28a6,6,0,0,1,.4,12,2,2,0,0,1-.4,0,2,2,0,1,1,0-4,2,2,0,0,0,0-4H6A6,6,0,0,1,5.6,8,2,2,0,0,1,6,8H28a2,2,0,0,0,0-4,2,2,0,0,1,0-4,2,2,0,0,1,.4,0A6,6,0,0,1,28,12Z"/></g></g></svg>